<?xml version="1.0" encoding="UTF-8" standalone="no"?>
<svg
   xmlns:dc="http://purl.org/dc/elements/1.1/"
   xmlns:cc="http://creativecommons.org/ns#"
   xmlns:rdf="http://www.w3.org/1999/02/22-rdf-syntax-ns#"
   xmlns:svg="http://www.w3.org/2000/svg"
   xmlns="http://www.w3.org/2000/svg"
   xmlns:sodipodi="http://sodipodi.sourceforge.net/DTD/sodipodi-0.dtd"
   xmlns:inkscape="http://www.inkscape.org/namespaces/inkscape"
   version="1.0"
   width="7.4027305in"
   height="3.9683113in"
   id="svg4137"
   inkscape:version="0.48+devel_r13544 "
   viewBox="0 0 188.02936 100.7951"
   sodipodi:docname="HW6P1.svg">
  <metadata
     id="metadata4422">
    <rdf:RDF>
      <cc:Work
         rdf:about="">
        <dc:format>image/svg+xml</dc:format>
        <dc:type
           rdf:resource="http://purl.org/dc/dcmitype/StillImage" />
        <dc:title></dc:title>
      </cc:Work>
    </rdf:RDF>
  </metadata>
  <sodipodi:namedview
     pagecolor="#ffffff"
     bordercolor="#666666"
     borderopacity="1"
     objecttolerance="10"
     gridtolerance="10"
     guidetolerance="10"
     inkscape:pageopacity="0"
     inkscape:pageshadow="2"
     inkscape:window-width="1264"
     inkscape:window-height="656"
     id="namedview4420"
     inkscape:document-units="mm"
     showgrid="false"
     inkscape:zoom="0.59376517"
     inkscape:cx="363.88957"
     inkscape:cy="144.10889"
     inkscape:window-x="0"
     inkscape:window-y="15"
     inkscape:window-maximized="1"
     inkscape:current-layer="svg4137"
     units="in"
     fit-margin-top="0"
     fit-margin-left="0"
     fit-margin-right="0"
     fit-margin-bottom="0" />
  <defs
     id="defs4139">
    <pattern
       id="EMFhbasepattern"
       patternUnits="userSpaceOnUse"
       width="6"
       height="6"
       x="0"
       y="0" />
  </defs>
  <path
     style="fill:none;stroke:#000000;stroke-width:0.7101953px;stroke-linecap:butt;stroke-linejoin:round;stroke-miterlimit:4;stroke-dasharray:none;stroke-opacity:1"
     d="m -34.45501,-38.101486 254.39826,0 0,190.798626 -254.39826,0 z"
     id="path4144"
     inkscape:connector-curvature="0" />
  <path
     style="fill:#ffffff;fill-opacity:1;fill-rule:evenodd;stroke:none"
     d="m 13.782432,49.915429 0,10.600052 25.440076,0 0,-10.600052 -25.440076,0 z"
     id="path4218"
     inkscape:connector-curvature="0" />
  <path
     style="fill:none;stroke:#000000;stroke-width:0.70489538px;stroke-linecap:butt;stroke-linejoin:round;stroke-miterlimit:4;stroke-dasharray:none;stroke-opacity:1"
     d="m 13.782432,49.915429 25.440076,0 0,10.600052 -25.440076,0 z"
     id="path4220"
     inkscape:connector-curvature="0" />
  <path
     style="fill:none;stroke:#000000;stroke-width:0.52999651px;stroke-linecap:butt;stroke-linejoin:round;stroke-miterlimit:4;stroke-dasharray:none;stroke-opacity:1"
     d="m 34.982402,49.915429 0,10.600052"
     id="path4222"
     inkscape:connector-curvature="0" />
  <path
     style="fill:none;stroke:#000000;stroke-width:0.52999651px;stroke-linecap:butt;stroke-linejoin:round;stroke-miterlimit:4;stroke-dasharray:none;stroke-opacity:1"
     d="m 30.742577,49.915429 0,10.600052"
     id="path4224"
     inkscape:connector-curvature="0" />
  <path
     style="fill:none;stroke:#000000;stroke-width:0.52999651px;stroke-linecap:butt;stroke-linejoin:round;stroke-miterlimit:4;stroke-dasharray:none;stroke-opacity:1"
     d="m 26.50247,49.915429 0,10.600052"
     id="path4226"
     inkscape:connector-curvature="0" />
  <path
     style="fill:#ffffff;fill-opacity:1;fill-rule:evenodd;stroke:none"
     d="m 10.602634,45.675287 0,17.039565 6.359878,0 0,-17.039565 -6.359878,0 z"
     id="path4228"
     inkscape:connector-curvature="0" />
  <path
     style="fill:#ffffff;fill-opacity:1;fill-rule:evenodd;stroke:none"
     d="m 45.582386,55.172985 c 0,-2.90437 2.374336,-5.257556 5.299852,-5.257556 2.930877,0 5.300133,2.353186 5.300133,5.257556 0,2.90436 -2.369256,5.257546 -5.300133,5.257546 -2.925516,0 -5.299852,-2.353186 -5.299852,-5.257546 z"
     id="path4230"
     inkscape:connector-curvature="0" />
  <path
     style="fill:none;stroke:#000000;stroke-width:0.70489538px;stroke-linecap:butt;stroke-linejoin:round;stroke-miterlimit:4;stroke-dasharray:none;stroke-opacity:1"
     d="m 45.582386,55.172985 c 0,-2.90437 2.374336,-5.257556 5.299852,-5.257556 2.930877,0 5.300133,2.353186 5.300133,5.257556 0,2.90436 -2.369256,5.257546 -5.300133,5.257546 -2.925516,0 -5.299852,-2.353186 -5.299852,-5.257546"
     id="path4232"
     inkscape:connector-curvature="0" />
  <path
     style="fill:none;stroke:#000000;stroke-width:0.52999651px;stroke-linecap:butt;stroke-linejoin:round;stroke-miterlimit:4;stroke-dasharray:none;stroke-opacity:1"
     d="m 45.582386,55.172985 -6.359878,0.0423"
     id="path4234"
     inkscape:connector-curvature="0" />
  <path
     style="fill:#ffffff;fill-opacity:1;fill-rule:evenodd;stroke:none"
     d="m 73.142182,49.915429 0,10.600052 25.43973,0 0,-10.600052 -25.43973,0 z"
     id="path4236"
     inkscape:connector-curvature="0" />
  <path
     style="fill:none;stroke:#000000;stroke-width:0.70489538px;stroke-linecap:butt;stroke-linejoin:round;stroke-miterlimit:4;stroke-dasharray:none;stroke-opacity:1"
     d="m 73.142182,49.915429 25.43973,0 0,10.600052 -25.43973,0 z"
     id="path4238"
     inkscape:connector-curvature="0" />
  <path
     style="fill:none;stroke:#000000;stroke-width:0.52999651px;stroke-linecap:butt;stroke-linejoin:round;stroke-miterlimit:4;stroke-dasharray:none;stroke-opacity:1"
     d="m 94.341802,49.915429 0,10.600052"
     id="path4240"
     inkscape:connector-curvature="0" />
  <path
     style="fill:none;stroke:#000000;stroke-width:0.52999651px;stroke-linecap:butt;stroke-linejoin:round;stroke-miterlimit:4;stroke-dasharray:none;stroke-opacity:1"
     d="m 90.101982,49.915429 0,10.600052"
     id="path4242"
     inkscape:connector-curvature="0" />
  <path
     style="fill:none;stroke:#000000;stroke-width:0.52999651px;stroke-linecap:butt;stroke-linejoin:round;stroke-miterlimit:4;stroke-dasharray:none;stroke-opacity:1"
     d="m 85.861872,49.915429 0,10.600052"
     id="path4244"
     inkscape:connector-curvature="0" />
  <path
     style="fill:#ffffff;fill-opacity:1;fill-rule:evenodd;stroke:none"
     d="m 69.962122,45.675287 0,17.039565 6.35984,0 0,-17.039565 -6.35984,0 z"
     id="path4246"
     inkscape:connector-curvature="0" />
  <path
     style="fill:#ffffff;fill-opacity:1;fill-rule:evenodd;stroke:none"
     d="m 104.94178,55.172985 c 0,-2.90437 2.37434,-5.257556 5.30014,-5.257556 2.93088,0 5.29985,2.353186 5.29985,5.257556 0,2.90436 -2.36897,5.257546 -5.29985,5.257546 -2.9258,0 -5.30014,-2.353186 -5.30014,-5.257546 z"
     id="path4248"
     inkscape:connector-curvature="0" />
  <path
     style="fill:none;stroke:#000000;stroke-width:0.70489538px;stroke-linecap:butt;stroke-linejoin:round;stroke-miterlimit:4;stroke-dasharray:none;stroke-opacity:1"
     d="m 104.94178,55.172985 c 0,-2.90437 2.37434,-5.257556 5.30014,-5.257556 2.93088,0 5.29985,2.353186 5.29985,5.257556 0,2.90436 -2.36897,5.257546 -5.29985,5.257546 -2.9258,0 -5.30014,-2.353186 -5.30014,-5.257546"
     id="path4250"
     inkscape:connector-curvature="0" />
  <path
     style="fill:none;stroke:#000000;stroke-width:0.52999651px;stroke-linecap:butt;stroke-linejoin:round;stroke-miterlimit:4;stroke-dasharray:none;stroke-opacity:1"
     d="m 104.94178,55.172985 -6.359868,0.0423"
     id="path4252"
     inkscape:connector-curvature="0" />
  <path
     style="fill:#ffffff;fill-opacity:1;fill-rule:evenodd;stroke:none"
     d="m 135.68171,13.546941 0,10.599714 25.4398,0 0,-10.599714 -25.4398,0 z"
     id="path4254"
     inkscape:connector-curvature="0" />
  <path
     style="fill:none;stroke:#000000;stroke-width:0.7101953px;stroke-linecap:butt;stroke-linejoin:round;stroke-miterlimit:4;stroke-dasharray:none;stroke-opacity:1"
     d="m 135.68171,13.546941 25.4398,0 0,10.599714 -25.4398,0 z"
     id="path4256"
     inkscape:connector-curvature="0" />
  <path
     style="fill:none;stroke:#000000;stroke-width:0.52999651px;stroke-linecap:butt;stroke-linejoin:round;stroke-miterlimit:4;stroke-dasharray:none;stroke-opacity:1"
     d="m 156.8814,13.546941 0,10.599714"
     id="path4258"
     inkscape:connector-curvature="0" />
  <path
     style="fill:none;stroke:#000000;stroke-width:0.52999651px;stroke-linecap:butt;stroke-linejoin:round;stroke-miterlimit:4;stroke-dasharray:none;stroke-opacity:1"
     d="m 152.64157,13.546941 0,10.599714"
     id="path4260"
     inkscape:connector-curvature="0" />
  <path
     style="fill:none;stroke:#000000;stroke-width:0.52999651px;stroke-linecap:butt;stroke-linejoin:round;stroke-miterlimit:4;stroke-dasharray:none;stroke-opacity:1"
     d="m 148.40147,13.546941 0,10.599714"
     id="path4262"
     inkscape:connector-curvature="0" />
  <path
     style="fill:#ffffff;fill-opacity:1;fill-rule:evenodd;stroke:none"
     d="m 132.50163,9.306834 0,17.044847 6.35988,0 0,-17.044847 -6.35988,0 z"
     id="path4264"
     inkscape:connector-curvature="0" />
  <path
     style="fill:#ffffff;fill-opacity:1;fill-rule:evenodd;stroke:none"
     d="m 167.48138,18.814901 c 0,-2.904349 2.37434,-5.26796 5.29986,-5.26796 2.93624,0 5.30013,2.363611 5.30013,5.26796 0,2.904348 -2.36389,5.257534 -5.30013,5.257534 -2.92552,0 -5.29986,-2.353186 -5.29986,-5.257534 z"
     id="path4266"
     inkscape:connector-curvature="0" />
  <path
     style="fill:none;stroke:#000000;stroke-width:0.7101953px;stroke-linecap:butt;stroke-linejoin:round;stroke-miterlimit:4;stroke-dasharray:none;stroke-opacity:1"
     d="m 167.48138,18.814901 c 0,-2.904349 2.37434,-5.26796 5.29986,-5.26796 2.93624,0 5.30013,2.363611 5.30013,5.26796 0,2.904348 -2.36389,5.257534 -5.30013,5.257534 -2.92552,0 -5.29986,-2.353186 -5.29986,-5.257534"
     id="path4268"
     inkscape:connector-curvature="0" />
  <path
     style="fill:none;stroke:#000000;stroke-width:0.52999651px;stroke-linecap:butt;stroke-linejoin:round;stroke-miterlimit:4;stroke-dasharray:none;stroke-opacity:1"
     d="m 167.48138,18.814901 -6.35987,0.03189"
     id="path4270"
     inkscape:connector-curvature="0" />
  <path
     style="fill:#ffffff;fill-opacity:1;fill-rule:evenodd;stroke:none"
     d="m 135.68171,87.990392 0,10.59999 25.4398,0 0,-10.59999 -25.4398,0 z"
     id="path4272"
     inkscape:connector-curvature="0" />
  <path
     style="fill:none;stroke:#000000;stroke-width:0.7101953px;stroke-linecap:butt;stroke-linejoin:round;stroke-miterlimit:4;stroke-dasharray:none;stroke-opacity:1"
     d="m 135.68171,87.990392 25.4398,0 0,10.59999 -25.4398,0 z"
     id="path4274"
     inkscape:connector-curvature="0" />
  <path
     style="fill:none;stroke:#000000;stroke-width:0.52999651px;stroke-linecap:butt;stroke-linejoin:round;stroke-miterlimit:4;stroke-dasharray:none;stroke-opacity:1"
     d="m 156.8814,87.990392 0,10.59999"
     id="path4276"
     inkscape:connector-curvature="0" />
  <path
     style="fill:none;stroke:#000000;stroke-width:0.52999651px;stroke-linecap:butt;stroke-linejoin:round;stroke-miterlimit:4;stroke-dasharray:none;stroke-opacity:1"
     d="m 152.64157,87.990392 0,10.59999"
     id="path4278"
     inkscape:connector-curvature="0" />
  <path
     style="fill:none;stroke:#000000;stroke-width:0.52999651px;stroke-linecap:butt;stroke-linejoin:round;stroke-miterlimit:4;stroke-dasharray:none;stroke-opacity:1"
     d="m 148.40147,87.990392 0,10.59999"
     id="path4280"
     inkscape:connector-curvature="0" />
  <path
     style="fill:#ffffff;fill-opacity:1;fill-rule:evenodd;stroke:none"
     d="m 132.50163,83.750572 0,17.044528 6.35988,0 0,-17.044528 -6.35988,0 z"
     id="path4282"
     inkscape:connector-curvature="0" />
  <path
     style="fill:#ffffff;fill-opacity:1;fill-rule:evenodd;stroke:none"
     d="m 167.48138,93.247912 c 0,-2.90435 2.37434,-5.25752 5.29986,-5.25752 2.93624,0 5.30013,2.35317 5.30013,5.25752 0,2.90435 -2.36389,5.26824 -5.30013,5.26824 -2.92552,0 -5.29986,-2.36389 -5.29986,-5.26824 z"
     id="path4284"
     inkscape:connector-curvature="0" />
  <path
     style="fill:none;stroke:#000000;stroke-width:0.7101953px;stroke-linecap:butt;stroke-linejoin:round;stroke-miterlimit:4;stroke-dasharray:none;stroke-opacity:1"
     d="m 167.48138,93.247912 c 0,-2.90435 2.37434,-5.25752 5.29986,-5.25752 2.93624,0 5.30013,2.35317 5.30013,5.25752 0,2.90435 -2.36389,5.26824 -5.30013,5.26824 -2.92552,0 -5.29986,-2.36389 -5.29986,-5.26824"
     id="path4286"
     inkscape:connector-curvature="0" />
  <path
     style="fill:none;stroke:#000000;stroke-width:0.52999651px;stroke-linecap:butt;stroke-linejoin:round;stroke-miterlimit:4;stroke-dasharray:none;stroke-opacity:1"
     d="m 167.48138,93.247912 -6.35987,0.0423"
     id="path4288"
     inkscape:connector-curvature="0" />
  <path
     style="fill:#000000;fill-opacity:1;fill-rule:nonzero;stroke:#000000;stroke-width:0.00529996px;stroke-linecap:butt;stroke-linejoin:round;stroke-miterlimit:4;stroke-dasharray:none;stroke-opacity:1"
     d="m 6.80779,35.466955 m 0,0 m 0,0 m 0,0 m 112.35912,62.377507 m 0,0 m 0,0 m 0,0 m -12.8524,-62.706581 m 0,0 m 0,0 m 0,0 m -59.492039,0 m 0,0 m 0,0 m 0,0 M 169.7815,-7.952865e-6 m 0,0 m 0,0 m 0,0 m 0,76.644499952865 m 0,0 m 0,0 m 0,0 M 0.00264998,54.923771 l 16.43521102,0 0,0.530024 -16.43521102,0 z m 14.45288202,-1.203118 2.512343,1.468132 -2.512343,1.462768 c -0.127,0.0742 -0.291253,0.0319 -0.365477,-0.0954 -0.07423,-0.127 -0.03189,-0.28618 0.09539,-0.3604 l 2.119771,-1.240102 0,0.461164 -2.119771,-1.240098 c -0.127283,-0.0742 -0.169616,-0.2334 -0.09539,-0.360404 0.07422,-0.12728 0.238477,-0.16961 0.365477,-0.0957 z"
     id="path4362"
     inkscape:connector-curvature="0" />
  <path
     style="fill:#000000;fill-opacity:1;fill-rule:nonzero;stroke:#000000;stroke-width:0.00529996px;stroke-linecap:butt;stroke-linejoin:round;stroke-miterlimit:4;stroke-dasharray:none;stroke-opacity:1"
     d="m 59.362169,54.881441 16.435143,0 0,0.530014 -16.435143,0 z m 14.453113,-1.203118 2.51204,1.468132 -2.51204,1.462758 c -0.12728,0.0742 -0.29154,0.0319 -0.36576,-0.0954 -0.0742,-0.127 -0.0319,-0.28617 0.0954,-0.36039 l 2.12003,-1.234742 0,0.455794 -2.12003,-1.235008 c -0.12728,-0.0742 -0.16962,-0.23848 -0.0954,-0.365764 0.0742,-0.127 0.23848,-0.16962 0.36576,-0.0954 z"
     id="path4364"
     inkscape:connector-curvature="0" />
  <path
     style="fill:#000000;fill-opacity:1;fill-rule:nonzero;stroke:#000000;stroke-width:0.00529996px;stroke-linecap:butt;stroke-linejoin:round;stroke-miterlimit:4;stroke-dasharray:none;stroke-opacity:1"
     d="m 68.107092,55.215315 0,19.615337 -0.53001,0 0,-19.615337 z m 1.20311,17.627927 -1.46812,2.51206 -1.46274,-2.51206 c -0.0742,-0.12728 -0.0316,-0.29153 0.0954,-0.3604 0.12728,-0.0742 0.28617,-0.0319 0.36039,0.0954 l 0,0 1.24036,2.11978 -0.46115,0 1.24007,-2.11978 c 0.0742,-0.12728 0.23312,-0.16961 0.3604,-0.0954 0.12728,0.0689 0.16961,0.23312 0.0954,0.3604 z"
     id="path4366"
     inkscape:connector-curvature="0" />
  <text
     xml:space="preserve"
     style="font-style:normal;font-variant:normal;font-weight:400;font-size:4.95652771px;line-height:125%;font-family:Calibri;text-align:start;letter-spacing:0px;word-spacing:0px;text-anchor:start;fill:#000000;fill-opacity:1;stroke:none"
     x="65.097748"
     y="47.263157"
     id="text4368"
     sodipodi:linespacing="125%"><tspan
       sodipodi:role="line"
       x="65.097748"
       y="47.263157"
       id="tspan4370"><tspan
         dx="0"
         dy="0"
         style="font-style:normal;font-variant:normal;font-weight:400;font-size:4.95652771px;font-family:Calibri;fill:#000000"
         id="tspan4372">75%</tspan></tspan></text>
  <text
     xml:space="preserve"
     style="font-style:normal;font-variant:normal;font-weight:400;font-size:4.95652771px;line-height:125%;font-family:Calibri;text-align:start;letter-spacing:0px;word-spacing:0px;text-anchor:start;fill:#000000;fill-opacity:1;stroke:none"
     x="56.617802"
     y="81.183296"
     id="text4374"
     sodipodi:linespacing="125%"><tspan
       sodipodi:role="line"
       x="56.617802"
       y="81.183296"
       id="tspan4376"><tspan
         dx="0"
         dy="0"
         style="font-style:normal;font-variant:normal;font-weight:400;font-size:4.95652771px;font-family:Calibri;fill:#000000"
         id="tspan4378">25% Drop</tspan></tspan></text>
  <path
     style="fill:#000000;fill-opacity:1;fill-rule:nonzero;stroke:#000000;stroke-width:0.01059993px;stroke-linecap:butt;stroke-linejoin:round;stroke-miterlimit:4;stroke-dasharray:none;stroke-opacity:1"
     d="m 120.84162,96.290262 16.44057,0 0,0.53002 -16.44057,0 z m 14.45853,-1.19803 2.51206,1.46304 -2.51206,1.46276 c -0.12728,0.0742 -0.2969,0.0316 -0.37112,-0.0954 -0.0742,-0.12728 -0.0319,-0.28618 0.0954,-0.3604 l 2.12005,-1.24037 0,0.46652 -2.12005,-1.24009 c -0.12729,-0.0742 -0.16962,-0.2334 -0.0954,-0.3604 0.0742,-0.12728 0.24384,-0.16961 0.37112,-0.0957 z"
     id="path4380"
     inkscape:connector-curvature="0" />
  <path
     style="fill:none;stroke:#000000;stroke-width:0.52999651px;stroke-linecap:butt;stroke-linejoin:round;stroke-miterlimit:4;stroke-dasharray:none;stroke-opacity:1"
     d="m 123.00937,21.253019 0,71.019813"
     id="path4382"
     inkscape:connector-curvature="0" />
  <path
     style="fill:none;stroke:#000000;stroke-width:0.52999651px;stroke-linecap:butt;stroke-linejoin:round;stroke-miterlimit:4;stroke-dasharray:none;stroke-opacity:1"
     d="m 115.54177,55.172985 7.4676,0.0423"
     id="path4384"
     inkscape:connector-curvature="0" />
  <path
     style="fill:#000000;fill-opacity:1;fill-rule:nonzero;stroke:#000000;stroke-width:0.00529996px;stroke-linecap:butt;stroke-linejoin:round;stroke-miterlimit:4;stroke-dasharray:none;stroke-opacity:1"
     d="m 123.00937,21.030346 14.26746,0 0,0.530013 -14.26746,0 z m 12.28542,-1.203113 2.51206,1.46812 -2.51206,1.46276 c -0.12729,0.0742 -0.29154,0.0319 -0.36576,-0.0954 -0.0742,-0.12728 -0.0319,-0.28617 0.0954,-0.3604 l 0,0 2.12005,-1.234724 0,0.455789 -2.12005,-1.235004 c -0.12729,-0.07422 -0.16962,-0.238478 -0.0954,-0.36576 0.0742,-0.127 0.23847,-0.169616 0.36576,-0.09539 z"
     id="path4386"
     inkscape:connector-curvature="0" />
  <path
     style="fill:#000000;fill-opacity:1;fill-rule:nonzero;stroke:#000000;stroke-width:0.01059993px;stroke-linecap:butt;stroke-linejoin:round;stroke-miterlimit:4;stroke-dasharray:none;stroke-opacity:1"
     d="m 122.96167,92.050162 14.27819,0 0,0.53001 -14.27819,0 z m 12.28542,-1.19775 2.51206,1.46275 -2.51206,1.46276 c -0.11656,0.0742 -0.28617,0.0319 -0.3604,-0.0954 -0.0742,-0.12728 -0.0319,-0.28617 0.0954,-0.3604 l 0,0 2.12006,-1.24008 0,0.46623 -2.12006,-1.24008 c -0.12728,-0.0742 -0.16961,-0.23312 -0.0954,-0.3604 0.0742,-0.12728 0.24384,-0.16962 0.3604,-0.0954 z"
     id="path4388"
     inkscape:connector-curvature="0" />
  <text
     xml:space="preserve"
     style="font-style:normal;font-variant:normal;font-weight:400;font-size:4.95652771px;line-height:125%;font-family:Calibri;text-align:start;letter-spacing:0px;word-spacing:0px;text-anchor:start;fill:#000000;fill-opacity:1;stroke:none"
     x="124.45712"
     y="34.301426"
     id="text4390"
     sodipodi:linespacing="125%"><tspan
       sodipodi:role="line"
       x="124.45712"
       y="34.301426"
       id="tspan4392"><tspan
         dx="0"
         dy="0"
         style="font-style:normal;font-variant:normal;font-weight:400;font-size:4.95652771px;font-family:Calibri;fill:#000000"
         id="tspan4394">65%</tspan></tspan></text>
  <text
     xml:space="preserve"
     style="font-style:normal;font-variant:normal;font-weight:400;font-size:4.95652771px;line-height:125%;font-family:Calibri;text-align:start;letter-spacing:0px;word-spacing:0px;text-anchor:start;fill:#000000;fill-opacity:1;stroke:none"
     x="124.45712"
     y="87.543327"
     id="text4396"
     sodipodi:linespacing="125%"><tspan
       sodipodi:role="line"
       x="124.45712"
       y="87.543327"
       id="tspan4398"><tspan
         dx="0"
         dy="0"
         style="font-style:normal;font-variant:normal;font-weight:400;font-size:4.95652771px;font-family:Calibri;fill:#000000"
         id="tspan4400">35%</tspan></tspan></text>
  <path
     style="fill:#000000;fill-opacity:1;fill-rule:nonzero;stroke:#000000;stroke-width:0.01059993px;stroke-linecap:butt;stroke-linejoin:round;stroke-miterlimit:4;stroke-dasharray:none;stroke-opacity:1"
     d="m 178.08137,19.079908 9.02039,0 0,-0.530013 -9.02039,0 z m 7.03834,1.197751 2.51206,-1.462758 -2.51206,-1.4732 c -0.12728,-0.07422 -0.2969,-0.03189 -0.37112,0.09539 -0.0742,0.127 -0.0316,0.296616 0.0954,0.37084 l 2.12005,1.229643 0,-0.455789 -2.12005,1.240084 c -0.127,0.07423 -0.16962,0.233398 -0.0954,0.360398 0.0742,0.127282 0.24384,0.169616 0.37112,0.09539 z"
     id="path4402"
     inkscape:connector-curvature="0" />
  <path
     style="fill:#000000;fill-opacity:1;fill-rule:nonzero;stroke:#000000;stroke-width:0.01059993px;stroke-linecap:butt;stroke-linejoin:round;stroke-miterlimit:4;stroke-dasharray:none;stroke-opacity:1"
     d="m 178.4841,92.908682 9.02067,0 0,-0.53002 -9.02067,0 z m 7.0279,1.20847 2.51206,-1.47348 -2.51206,-1.46276 c -0.12728,-0.0742 -0.28618,-0.0316 -0.3604,0.0954 -0.0742,0.12729 -0.0319,0.28618 0.0954,0.3604 l 2.11977,1.24037 0,-0.45579 -2.11977,1.22936 c -0.12728,0.0742 -0.16961,0.24384 -0.0954,0.37112 0.0742,0.11656 0.23312,0.15889 0.3604,0.0954 z"
     id="path4404"
     inkscape:connector-curvature="0" />
  <path
     style="fill:#000000;fill-opacity:1;fill-rule:nonzero;stroke:#000000;stroke-width:0.00529996px;stroke-linecap:butt;stroke-linejoin:round;stroke-miterlimit:4;stroke-dasharray:none;stroke-opacity:1"
     d="m 119.16691,6.360152 m 0,0 m 0,0 m 0,0 m 1.67471,9.041554 16.43521,0 0,0.530013 -16.43521,0 z m 14.45317,-1.197751 2.51206,1.462757 -2.51206,1.46812 c -0.12729,0.07422 -0.29154,0.03189 -0.36576,-0.09539 -0.0742,-0.127 -0.0319,-0.286173 0.0954,-0.360397 l 2.12005,-1.240085 0,0.461151 -2.12005,-1.240367 c -0.12729,-0.07422 -0.16962,-0.233115 -0.0954,-0.360397 0.0742,-0.127 0.23847,-0.169616 0.36576,-0.09539 z"
     id="path4418"
     inkscape:connector-curvature="0" />
  <text
     xml:space="preserve"
     style="font-style:normal;font-variant:normal;font-weight:normal;font-stretch:normal;font-size:5.64444447px;line-height:125%;font-family:Arial;-inkscape-font-specification:'Arial, Normal';text-align:start;letter-spacing:0px;word-spacing:0px;writing-mode:lr-tb;text-anchor:start;fill:#000000;fill-opacity:1;stroke:none;stroke-width:1px;stroke-linecap:butt;stroke-linejoin:miter;stroke-opacity:1"
     x="114.65552"
     y="97.07859"
     id="text4424-6"
     sodipodi:linespacing="125%"><tspan
       sodipodi:role="line"
       id="tspan4426-4"
       x="114.65552"
       y="97.07859"
       dy="0">λ<tspan
   style="font-size:64.99999762%;baseline-shift:sub"
   id="tspan4250">4</tspan></tspan></text>
  <text
     xml:space="preserve"
     style="font-style:normal;font-variant:normal;font-weight:normal;font-stretch:normal;font-size:5.64444399px;line-height:125%;font-family:Arial;-inkscape-font-specification:'Arial, Normal';text-align:start;letter-spacing:0px;word-spacing:0px;writing-mode:lr-tb;text-anchor:start;fill:#000000;fill-opacity:1;stroke:none;stroke-width:1px;stroke-linecap:butt;stroke-linejoin:miter;stroke-opacity:1"
     x="5.8339195"
     y="50.71146"
     id="text4424-6-1"
     sodipodi:linespacing="125%"><tspan
       sodipodi:role="line"
       id="tspan4426-4-7"
       x="5.8339195"
       y="50.71146"
       dy="0">λ<tspan
   style="font-size:3.66888881px;baseline-shift:sub"
   id="tspan4250-0">1</tspan></tspan></text>
  <text
     xml:space="preserve"
     style="font-style:normal;font-variant:normal;font-weight:normal;font-stretch:normal;font-size:5.64444399px;line-height:125%;font-family:Arial;-inkscape-font-specification:'Arial, Normal';text-align:start;letter-spacing:0px;word-spacing:0px;writing-mode:lr-tb;text-anchor:start;fill:#000000;fill-opacity:1;stroke:none;stroke-width:1px;stroke-linecap:butt;stroke-linejoin:miter;stroke-opacity:1"
     x="114.18478"
     y="16.804501"
     id="text4424-6-5"
     sodipodi:linespacing="125%"><tspan
       sodipodi:role="line"
       id="tspan4426-4-3"
       x="114.18478"
       y="16.804501"
       dy="0">λ<tspan
   style="font-size:3.66888881px;baseline-shift:sub"
   id="tspan4250-1">3</tspan></tspan></text>
  <text
     xml:space="preserve"
     style="font-style:normal;font-variant:normal;font-weight:normal;font-stretch:normal;font-size:5.64444399px;line-height:125%;font-family:Arial;-inkscape-font-specification:'Arial, Normal';text-align:start;letter-spacing:0px;word-spacing:0px;writing-mode:lr-tb;text-anchor:start;fill:#000000;fill-opacity:1;stroke:none;stroke-width:1px;stroke-linecap:butt;stroke-linejoin:miter;stroke-opacity:1"
     x="49.900898"
     y="42.450283"
     id="text4424-6-3"
     sodipodi:linespacing="125%"><tspan
       sodipodi:role="line"
       id="tspan4426-4-6"
       x="49.900898"
       y="42.450283"
       dy="0">μ<tspan
   style="font-size:3.66888881px;baseline-shift:sub"
   id="tspan4250-6">1</tspan></tspan></text>
  <text
     xml:space="preserve"
     style="font-style:normal;font-variant:normal;font-weight:normal;font-stretch:normal;font-size:5.64444399px;line-height:125%;font-family:Arial;-inkscape-font-specification:'Arial, Normal';text-align:start;letter-spacing:0px;word-spacing:0px;writing-mode:lr-tb;text-anchor:start;fill:#000000;fill-opacity:1;stroke:none;stroke-width:1px;stroke-linecap:butt;stroke-linejoin:miter;stroke-opacity:1"
     x="107.43834"
     y="42.450283"
     id="text4424-6-3-0"
     sodipodi:linespacing="125%"><tspan
       sodipodi:role="line"
       id="tspan4426-4-6-8"
       x="107.43834"
       y="42.450283"
       dy="0 0">μ<tspan
   style="font-size:3.66888881px;baseline-shift:sub"
   id="tspan4250-6-7">2</tspan></tspan></text>
  <text
     xml:space="preserve"
     style="font-style:normal;font-variant:normal;font-weight:normal;font-stretch:normal;font-size:5.64444399px;line-height:125%;font-family:Arial;-inkscape-font-specification:'Arial, Normal';text-align:start;letter-spacing:0px;word-spacing:0px;writing-mode:lr-tb;text-anchor:start;fill:#000000;fill-opacity:1;stroke:none;stroke-width:1px;stroke-linecap:butt;stroke-linejoin:miter;stroke-opacity:1"
     x="171.27116"
     y="11.326091"
     id="text4424-6-3-0-2"
     sodipodi:linespacing="125%"><tspan
       sodipodi:role="line"
       id="tspan4426-4-6-8-2"
       x="171.27116"
       y="11.326091"
       dy="0">μ<tspan
   style="font-size:3.66888881px;baseline-shift:sub"
   id="tspan4250-6-7-4">3</tspan></tspan></text>
  <text
     xml:space="preserve"
     style="font-style:normal;font-variant:normal;font-weight:normal;font-stretch:normal;font-size:5.64444399px;line-height:125%;font-family:Arial;-inkscape-font-specification:'Arial, Normal';text-align:start;letter-spacing:0px;word-spacing:0px;writing-mode:lr-tb;text-anchor:start;fill:#000000;fill-opacity:1;stroke:none;stroke-width:1px;stroke-linecap:butt;stroke-linejoin:miter;stroke-opacity:1"
     x="170.20163"
     y="84.197182"
     id="text4424-6-3-0-9"
     sodipodi:linespacing="125%"><tspan
       sodipodi:role="line"
       id="tspan4426-4-6-8-8"
       x="170.20163"
       y="84.197182"
       dy="0">μ<tspan
   style="font-size:3.66888881px;baseline-shift:sub"
   id="tspan4250-6-7-6">4</tspan></tspan></text>
</svg>
